# ProBuilder 4.0.5
# https://unity3d.com/unity/features/worldbuilding/probuilder
# 11/28/2019 1:38:46 PM

mtllib ./ball_spawn_platform.mtl
o ball_spawn_platform

g Cube
v 0.9536773 0.2302935 0.08714661
v 0.793616 0.2305208 0.08714661
v 0.793616 0.2305208 -0.08714661
v 0.9536773 0.2302935 -0.08714661
v 0.9356158 -0.0001848638 0.05670135
v 0.9750039 -3.805757E-05 0.05670135
v 0.9750039 -3.805757E-05 -0.05670135
v 0.9356158 -0.0001848638 -0.05670135
v 0.9442441 0.0488719 0.05670135
v 0.975004 0.02289521 0.05670138
v 0.9217424 0.08406438 0.05670135
v 0.892651 -0.0005208552 0.05670135
v 0.9060784 0.1165267 0.05670135
v 0.8878662 0.02812143 0.05670135
v 0.8970273 0.1501636 0.05670135
v 0.8687878 0.1327364 0.05670135
v 0.8877658 0.1764369 0.05670135
v 0.8595266 0.1765285 0.05670135
v 0.887766 0.1924475 0.05670135
v 0.8595267 0.1925391 0.05670135
v 0.975004 0.0228952 -0.05670131
v 0.9442441 0.0488719 -0.05670135
v 0.892651 -0.0005208552 -0.05670135
v 0.9217424 0.08406438 -0.05670135
v 0.8878662 0.02812143 -0.05670135
v 0.9060784 0.1165267 -0.05670135
v 0.8687878 0.1327364 -0.05670135
v 0.8970273 0.1501636 -0.05670135
v 0.8595266 0.1765285 -0.05670134
v 0.8877658 0.1764369 -0.05670134
v 0.8595267 0.1925391 -0.05670134
v 0.887766 0.1924475 -0.05670134

vt -0.2306908 0.2904886
vt 0.3028473 0.2904886
vt 0.3028473 -0.2904887
vt -0.2306908 -0.2904887
vt 0.1710193 0.1890045
vt 0.3023129 0.1890045
vt 0.3023129 -0.1890045
vt 0.1710193 -0.1890045
vt 0.1997802 0.001886487
vt 0.302313 0.001886547
vt 0.302313 -0.3761223
vt 0.1710194 -0.3761223
vt 0.1247748 0.01146472
vt 0.07502472 -0.3428121
vt 0.07256126 0.03839314
vt -0.001098275 -0.2792432
vt 0.04239106 0.07599837
vt -0.05174077 -0.1317095
vt 0.01151943 0.1958424
vt -0.08261144 0.1961479
vt 0.01152003 0.249211
vt -0.08261096 0.2495165
vt -0.1710194 -0.3761223
vt -0.302313 -0.3761223
vt -0.302313 0.001886547
vt -0.1997802 0.001886487
vt -0.07502472 -0.3428121
vt -0.1247748 0.01146472
vt 0.001098275 -0.2792432
vt -0.07256126 0.03839314
vt 0.05174077 -0.1317095
vt -0.04239106 0.07599837
vt 0.08261144 0.1961479
vt -0.01151943 0.1958424
vt 0.08261096 0.2495165
vt -0.01152003 0.249211
vt -0.1997802 -0.1890045
vt -0.302313 -0.1890045
vt -0.302313 0.1890045
vt -0.1997802 0.1890045
vt 0.183261 0.1890045
vt 0.2848708 0.1890045
vt 0.2848708 -0.1890045
vt 0.183261 -0.1890045
vt -0.1223175 -0.1890045
vt -0.197932 -0.1890045
vt -0.197932 0.1890045
vt -0.1223175 0.1890045
vt 0.1781452 0.1890045
vt 0.2773205 0.1890045
vt 0.2773205 -0.1890045
vt 0.1781452 -0.1890045
vt -0.04689159 -0.1890045
vt -0.1056402 -0.1890045
vt -0.1056402 0.1890045
vt -0.04689159 0.1890045
vt 0.1890045 -0.1077762
vt 0.1890045 -0.2637597
vt -0.1890045 -0.2637597
vt -0.1890045 -0.1077762
vt 0.1890045 0.03275097
vt 0.1890045 -0.015461
vt -0.1890045 -0.015461
vt -0.1890045 0.03275097
vt 0.1890045 0.2030284
vt 0.1890045 -0.1262791
vt -0.1890045 -0.1262791
vt -0.1890045 0.2030284
vt 0.1890045 0.1867776
vt 0.1890045 0.06302114
vt -0.1890045 0.06302114
vt -0.1890045 0.1867776
vt 0.1890045 -0.3761223
vt -0.1890045 -0.3761223
vt -0.1890045 0.001886547
vt 0.1890045 0.001886547
vt 0.1890045 0.2495158
vt 0.1890045 0.1961471
vt -0.1890045 0.1961471
vt -0.1890045 0.2495158
vt 0.1890045 0.2492111
vt 0.1890045 0.1958426
vt -0.1890045 0.1958426
vt -0.1890045 0.2492111
vt -0.4497292 0.2904886
vt -0.1961585 0.1890045
vt -0.1961585 -0.1890045
vt -0.4497292 -0.2904887
vt 0.2319776 0.4742019
vt 0.01201073 0.3126526
vt -0.08211996 0.3130438
vt -0.3015581 0.4756591
vt 0.3015522 0.4756314
vt 0.08211615 0.3130122
vt -0.01201452 0.3126197
vt -0.2319835 0.4741652
vt 0.3874311 -0.2904887
vt 0.1340843 -0.1890045
vt 0.1340843 0.1890045
vt 0.3874311 0.2904886

vn 0.001420652 0.999999 0
vn 0.00372715 -0.999993 0
vn -6.457228E-07 -4.060995E-07 1
vn 2.621026E-07 3.597357E-07 -1
vn 0.6452055 0.7640091 -2.509778E-08
vn 0.007819912 -0.9999694 0
vn 0.8425055 0.5386879 0
vn -0.9863318 -0.1647712 0
vn 0.9006325 0.4345815 0
vn -0.9837746 -0.179409 0
vn 0.9656517 0.25984 0
vn -0.9783611 -0.2069047 0
vn 0.9431191 0.332455 0
vn 1 -2.599048E-06 8.5379E-14
vn -1 7.445642E-06 0
vn -0.4992915 -0.866434 0
vn -0.00145884 -0.6255221 0.7802041
vn -0.002027804 -0.6246599 0.7808943
vn -0.0008898754 -0.6263844 0.7795138
vn -0.001463234 -0.6267303 -0.7792339
vn -0.002037328 -0.6275938 -0.7785383
vn -0.0008891401 -0.6258668 -0.7799294
vn 0.497947 -0.8672075 0

g Cube
usemtl wall
f 28/32/4 27/31/4 29/33/4
f 30/34/4 28/32/4 29/33/4
f 3/3/1 2/2/1 1/1/1
f 1/1/1 4/4/1 3/3/1
f 7/7/2 6/6/2 5/5/2
f 5/5/2 8/8/2 7/7/2
f 6/11/3 10/10/3 9/9/3
f 9/9/3 5/12/3 6/11/3
f 5/12/3 9/9/3 11/13/3
f 11/13/3 12/14/3 5/12/3
f 12/14/3 11/13/3 13/15/3
f 13/15/3 14/16/3 12/14/3
f 14/16/3 13/15/3 15/17/3
f 15/17/3 16/18/3 14/16/3
f 16/18/3 15/17/3 17/19/3
f 17/19/3 18/20/3 16/18/3
f 18/20/3 17/19/3 19/21/3
f 19/21/3 20/22/3 18/20/3
f 21/25/4 7/24/4 8/23/4
f 8/23/4 22/26/4 21/25/4
f 22/26/4 8/23/4 23/27/4
f 23/27/4 24/28/4 22/26/4
f 24/28/4 23/27/4 25/29/4
f 25/29/4 26/30/4 24/28/4
f 26/30/4 25/29/4 27/31/4
f 27/31/4 28/32/4 26/30/4
f 30/34/4 29/33/4 31/35/4
f 31/35/4 32/36/4 30/34/4
f 10/39/5 21/38/5 22/37/5
f 22/37/5 9/40/5 10/39/5
f 8/43/6 5/42/6 12/41/6
f 12/41/6 23/44/6 8/43/6
f 9/47/7 22/46/7 24/45/7
f 24/45/7 11/48/7 9/47/7
f 23/51/8 12/50/8 14/49/8
f 14/49/8 25/52/8 23/51/8
f 11/55/9 24/54/9 26/53/9
f 26/53/9 13/56/9 11/55/9
f 25/59/10 14/58/10 16/57/10
f 16/57/10 27/60/10 25/59/10
f 13/63/11 26/62/11 28/61/11
f 28/61/11 15/64/11 13/63/11
f 27/67/12 16/66/12 18/65/12
f 18/65/12 29/68/12 27/67/12
f 15/71/13 28/70/13 30/69/13
f 30/69/13 17/72/13 15/71/13
f 10/75/14 6/74/14 7/73/14
f 7/73/14 21/76/14 10/75/14
f 29/79/15 18/78/15 20/77/15
f 20/77/15 31/80/15 29/79/15
f 17/83/14 30/82/14 32/81/14
f 32/81/14 19/84/14 17/83/14
f 31/87/16 20/86/16 2/85/16
f 2/85/16 3/88/16 31/87/16
f 20/91/17 19/90/18 1/89/17
f 1/89/17 2/92/19 20/91/17
f 32/95/20 31/94/21 3/93/20
f 3/93/20 4/96/22 32/95/20
f 19/99/23 32/98/23 4/97/23
f 4/97/23 1/100/23 19/99/23

