# ProBuilder 4.0.5
# https://unity3d.com/unity/features/worldbuilding/probuilder
# 1/20/2020 2:34:30 PM

mtllib ./wall_half_pipe.mtl
o wall_half_pipe

g HalfPipeWall
v -0.1111951 1.378357E-07 0
v -0.1111951 1.378357E-07 1
v -0.1110559 0.1000001 0
v -0.1110559 0.1000001 1
v 0 0 0
v -0.1 0 0
v 0 0 1
v -0.1 0 1
v -0.09986091 0.1 1
v -0.09381127 0.07365932 1
v -0.08264637 0.05425322 1
v -0.0671525 0.03661421 1
v -0.04891443 0.02141189 1
v -0.03573275 0.01122016 1
v -0.02070928 0.003973529 1
v -0.09986091 0.1 0
v -0.02070928 0.003973531 0
v -0.03573275 0.01122017 0
v -0.04891443 0.0214119 0
v -0.0671525 0.03661422 0
v -0.08264637 0.05425322 0
v -0.09381127 0.07365932 0

vt 0 -0.0001546861
vt 1 -0.0001546861
vt 0 0.09984542
vt 1 0.09984542
vt -0.1 0
vt 0 1
vt -0.1 1
vt -0.09986091 0.1
vt -0.09381127 0.07365932
vt -0.08264637 0.05425322
vt -0.0671525 0.03661421
vt -0.04891443 0.02141189
vt -0.03573275 0.01122016
vt -0.02070928 0.003973529
vt 0.1412488 1
vt 0.1412488 -7.776389E-12
vt 0.1188119 1
vt 0.09739067 1
vt 0.07402209 1
vt 0.05031998 1
vt 0.03373374 1
vt 0.01781992 1
vt 0.01781992 1.91412E-11
vt 0.03373374 2.76246E-11
vt 0.05031998 3.032229E-11
vt 0.07402209 3.269162E-11
vt 0.09739067 2.885622E-11
vt 0.1188119 1.780377E-11
vt 0.09986091 0.1
vt 0.1 0
vt 0.02070928 0.003973531
vt 0.03573275 0.01122017
vt 0.04891443 0.0214119
vt 0.0671525 0.03661422
vt 0.08264637 0.05425322
vt 0.09381127 0.07365932
vt -0.1111951 1
vt -0.1111951 0
vt 0.1111951 1.378357E-07
vt 0.1110559 0.1000001
vt 0.09986217 0
vt 0.09986217 1
vt 0.1110571 1
vt -0.1110559 0.1000001

vn -0.999999 0.001392363 0
vn 0 -1 0
vn 0 0 1
vn 0.9746256 0.2238411 0
vn 0.1884347 0.9820857 9.146386E-10
vn 0.9207042 0.3612635 0
vn 0.7898038 0.6061918 1.63899E-09
vn 0.6772929 0.7320747 4.500534E-09
vn 0.6212063 0.7834561 2.918602E-09
vn 0.4935254 0.8641675 2.66005E-09
vn 0.2704411 0.9549552 1.168984E-09
vn 0.3524474 0.9278247 2.287433E-09
vn 0.5525969 0.827641 3.083203E-09
vn 0.6307442 0.775798 3.84392E-09
vn 0.7143036 0.6960096 3.546686E-09
vn 0.8282933 0.5524389 0
vn 0 0 -1
vn 1.264509E-05 1 0

g HalfPipeWall
usemtl wall
f 16/29/17 22/36/17 6/30/17
f 22/36/17 21/35/17 6/30/17
f 21/35/17 20/34/17 6/30/17
f 20/34/17 19/33/17 6/30/17
f 19/33/17 18/32/17 6/30/17
f 18/32/17 17/31/17 6/30/17
f 17/31/17 5/1/17 6/30/17
f 15/14/3 8/5/3 7/1/3
f 14/13/3 8/5/3 15/14/3
f 13/12/3 8/5/3 14/13/3
f 12/11/3 8/5/3 13/12/3
f 11/10/3 8/5/3 12/11/3
f 10/9/3 8/5/3 11/10/3
f 9/8/3 8/5/3 10/9/3
f 15/22/11 7/6/5 5/1/5
f 15/22/11 5/1/5 17/23/12
f 14/21/10 15/22/11 17/23/12
f 14/21/10 17/23/12 18/24/13
f 13/20/9 14/21/10 18/24/13
f 13/20/9 18/24/13 19/25/14
f 12/19/8 13/20/9 19/25/14
f 12/19/8 19/25/14 20/26/15
f 11/18/7 12/19/8 20/26/15
f 11/18/7 20/26/15 21/27/16
f 10/17/6 11/18/7 21/27/16
f 10/17/6 21/27/16 22/28/6
f 16/16/4 10/17/6 22/28/6
f 16/16/4 9/15/4 10/17/6
f 3/3/1 1/1/1 2/2/1
f 2/2/1 4/4/1 3/3/1
f 8/7/2 6/5/2 5/1/2
f 5/1/2 7/6/2 8/7/2
f 1/38/2 6/5/2 8/7/2
f 8/7/2 2/37/2 1/38/2
f 3/40/17 16/29/17 6/30/17
f 6/30/17 1/39/17 3/40/17
f 4/43/18 9/42/18 16/41/18
f 16/41/18 3/39/18 4/43/18
f 2/38/3 8/5/3 9/8/3
f 9/8/3 4/44/3 2/38/3

